<mxfile host="Electron" agent="Mozilla/5.0 (Macintosh; Intel Mac OS X 10_15_7) AppleWebKit/537.36 (KHTML, like Gecko) draw.io/25.0.2 Chrome/128.0.6613.186 Electron/32.2.5 Safari/537.36" version="25.0.2" pages="2">
  <diagram name="Single-Account-v2" id="prQkL8yLCa_fGH4nKR23">
    <mxGraphModel dx="1434" dy="879" grid="1" gridSize="10" guides="1" tooltips="1" connect="1" arrows="1" fold="1" page="0" pageScale="1" pageWidth="850" pageHeight="1100" background="none" math="0" shadow="0">
      <root>
        <mxCell id="0" />
        <mxCell id="1" parent="0" />
        <mxCell id="VavkJtrelhXVS9yx8hgA-1" value="AWS Account" style="points=[[0,0],[0.25,0],[0.5,0],[0.75,0],[1,0],[1,0.25],[1,0.5],[1,0.75],[1,1],[0.75,1],[0.5,1],[0.25,1],[0,1],[0,0.75],[0,0.5],[0,0.25]];outlineConnect=0;gradientColor=none;html=1;whiteSpace=wrap;fontSize=12;fontStyle=0;container=1;pointerEvents=0;collapsible=0;recursiveResize=0;shape=mxgraph.aws4.group;grIcon=mxgraph.aws4.group_account;strokeColor=#CD2264;fillColor=none;verticalAlign=top;align=left;spacingLeft=30;fontColor=#CD2264;dashed=0;" parent="1" vertex="1">
          <mxGeometry x="170" y="220" width="570" height="440" as="geometry" />
        </mxCell>
        <mxCell id="2yRa0TrZLxSC5hwkOfu0-1" value="Region" style="points=[[0,0],[0.25,0],[0.5,0],[0.75,0],[1,0],[1,0.25],[1,0.5],[1,0.75],[1,1],[0.75,1],[0.5,1],[0.25,1],[0,1],[0,0.75],[0,0.5],[0,0.25]];outlineConnect=0;gradientColor=none;html=1;whiteSpace=wrap;fontSize=12;fontStyle=0;container=1;pointerEvents=0;collapsible=0;recursiveResize=0;shape=mxgraph.aws4.group;grIcon=mxgraph.aws4.group_region;strokeColor=#00A4A6;fillColor=none;verticalAlign=top;align=left;spacingLeft=30;fontColor=#147EBA;dashed=1;" parent="VavkJtrelhXVS9yx8hgA-1" vertex="1">
          <mxGeometry x="14" y="33" width="541.5" height="400" as="geometry" />
        </mxCell>
        <mxCell id="2yRa0TrZLxSC5hwkOfu0-2" value="" style="group" parent="2yRa0TrZLxSC5hwkOfu0-1" vertex="1" connectable="0">
          <mxGeometry x="50" y="49" width="60" height="72" as="geometry" />
        </mxCell>
        <mxCell id="VavkJtrelhXVS9yx8hgA-15" value="" style="sketch=0;outlineConnect=0;fontColor=#232F3E;gradientColor=none;fillColor=#E7157B;strokeColor=none;dashed=0;verticalLabelPosition=bottom;verticalAlign=top;align=center;html=1;fontSize=12;fontStyle=0;aspect=fixed;pointerEvents=1;shape=mxgraph.aws4.rule_2;" parent="2yRa0TrZLxSC5hwkOfu0-2" vertex="1">
          <mxGeometry width="51.32" height="50" as="geometry" />
        </mxCell>
        <mxCell id="VavkJtrelhXVS9yx8hgA-16" value="&lt;font&gt;QuotaGuardEventRule&lt;/font&gt;" style="text;html=1;align=center;verticalAlign=middle;whiteSpace=wrap;rounded=0;fontStyle=1" parent="2yRa0TrZLxSC5hwkOfu0-2" vertex="1">
          <mxGeometry y="45" width="60" height="30" as="geometry" />
        </mxCell>
        <mxCell id="2yRa0TrZLxSC5hwkOfu0-3" value="" style="group" parent="2yRa0TrZLxSC5hwkOfu0-1" vertex="1" connectable="0">
          <mxGeometry x="228.25" y="45" width="60" height="80" as="geometry" />
        </mxCell>
        <mxCell id="VavkJtrelhXVS9yx8hgA-11" value="" style="outlineConnect=0;dashed=0;verticalLabelPosition=bottom;verticalAlign=top;align=center;html=1;shape=mxgraph.aws3.lambda_function;fillColor=#F58534;gradientColor=none;" parent="2yRa0TrZLxSC5hwkOfu0-3" vertex="1">
          <mxGeometry x="6.75" width="46.5" height="57" as="geometry" />
        </mxCell>
        <mxCell id="VavkJtrelhXVS9yx8hgA-13" value="&lt;font&gt;QuotaGuardLambda&lt;/font&gt;" style="text;html=1;align=center;verticalAlign=middle;whiteSpace=wrap;rounded=0;fontStyle=1" parent="2yRa0TrZLxSC5hwkOfu0-3" vertex="1">
          <mxGeometry y="50" width="60" height="30" as="geometry" />
        </mxCell>
        <mxCell id="VavkJtrelhXVS9yx8hgA-29" value="" style="shape=image;verticalLabelPosition=bottom;labelBackgroundColor=default;verticalAlign=top;aspect=fixed;imageAspect=0;image=data:image/png,iVBORw0KGgoAAAANSUhEUgAAAFQAAABSCAYAAADKMvPcAAAKsmlDQ1BJQ0MgUHJvZmlsZQAASImVlwdU09cXx+/vlx0SAgQiICPsJcgmgIywAyjIBlEJSYAwQgwEFTdSrGAdiIjgqGhVRME6AKkTB04EF+6CFAW1FgcuHP0Bh9D2v87/5rzcz7m57/vue+e9c24A6Gy+VJqJqgBkSXJlEYE+7Lj4BDapD2hABAqogh5fkCPlhoeHAmZj/u/27jYgw/6G9bDWv/7+X01VKMoRACDhGCcLcwRZGB/GxieBVJYLgDuAxY3m5kqH+SbG6jKsQIz7hjl1lD8Pc/II41VGcqIifDE2BiDT+HxZKgDNFouz8wSpmA5teC1biVAswXgpxp5ZWdlCjE9hbI7lSDEe1uck/0Un9W+ayQpNPj9VwaN7GTGynzhHmsmf/38ex/+2rEz52Bpm2KClyYIiMM/Czuy3jOwQBUuSp4WNsVg4kj/CafKg6DEW5PgmjHFOZiRvjIV8vxCFTua00DFOEQcocsS5vKgxFuX4R46xLDtCsW6KzJc7xnzZeA3yjGhFPE3EU+jnp0XFjnGeOGaaoraMyJDxHF9FXCaPUOxFJAn0GV83QHEOWTl/2buYp5ibmxYVpDgH/nj9Igl3XDMnTlGbUOTnP54TrciX5voo1pJmhivyRZmBinhOXqRibi52OcfnhivOMJ0fHD7G4Af+EIp92BAO9uAIduAKWLW5onm5w5vxzZbOl4lT03LZXOzFidg8icBmEtve1t4RYPj9jl6PNxEj7xJhnRiPZe/ErvU77M2sG48llwE0FgFo3huPGW8FYBQCNLQI5LK80Rh++IsAVGCAOmiBHhiBOVhj9TmDO3hjFQdDGERBPMwCAaRBFshgLiyEZVAEJbAWNkAlbIMdsAf2w0FohGNwGs7DZWiHW3AfuqAXnsMAvIMhBEFICB1hIlqIPmKCWCH2CAfxRPyRUCQCiUeSkFREgsiRhchypAQpRSqR7UgN8jNyFDmNXEQ6kLtIN9KPvEY+oTiUhqqjuqgpOhnloFw0BI1CZ6Kp6Bw0Hy1EV6MVaDW6D21AT6OX0VtoF/ocHcQBTgnHwhngrHEcnC8uDJeAS8HJcItxxbhyXDWuDteMa8XdwHXhXuA+4ol4Jp6Nt8a744Pw0XgBfg5+MX4VvhK/B9+AP4u/ge/GD+C/EugEHYIVwY3AI8QRUglzCUWEcsIuwhHCOcItQi/hHZFIZBHNiC7EIGI8MZ24gLiKuIVYTzxF7CD2EAdJJJIWyYrkQQoj8Um5pCLSJtI+0knSdVIv6QNZiaxPticHkBPIEnIBuZy8l3yCfJ38lDxEUaGYUNwoYRQhZT5lDWUnpZlyjdJLGaKqUs2oHtQoajp1GbWCWkc9R31AfaOkpGSo5Ko0XUmstFSpQumA0gWlbqWPNDWaJc2XlkiT01bTdtNO0e7S3tDpdFO6Nz2BnktfTa+hn6E/on9QZirbKPOUhcpLlKuUG5SvK79kUBgmDC5jFiOfUc44xLjGeKFCUTFV8VXhqyxWqVI5qtKpMqjKVLVTDVPNUl2lulf1omqfGknNVM1fTahWqLZD7YxaDxPHNGL6MgXM5cydzHPMXnWiupk6Tz1dvUR9v3qb+oCGmoajRozGPI0qjeMaXSwcy5TFY2Wy1rAOsm6zPk3QncCdIJqwckLdhOsT3mtO1PTWFGkWa9Zr3tL8pMXW8tfK0Fqn1aj1UBuvbak9XXuu9lbtc9ovJqpPdJ8omFg88eDEezqojqVOhM4CnR06V3QGdfV0A3Wlupt0z+i+0GPpeeul65XpndDr12fqe+qL9cv0T+o/Y2uwuexMdgX7LHvAQMcgyEBusN2gzWDI0Mww2rDAsN7woRHViGOUYlRm1GI0YKxvPNV4oXGt8T0TignHJM1ko0mryXtTM9NY0xWmjaZ9ZppmPLN8s1qzB+Z0cy/zOebV5jctiBYciwyLLRbtlqilk2WaZZXlNSvUytlKbLXFqmMSYZLrJMmk6kmd1jRrrnWeda11tw3LJtSmwKbR5uVk48kJk9dNbp381dbJNtN2p+19OzW7YLsCu2a71/aW9gL7KvubDnSHAIclDk0OrxytHEWOWx3vODGdpjqtcGpx+uLs4ixzrnPudzF2SXLZ7NLJUeeEc1ZxLrgSXH1cl7gec/3o5uyW63bQ7Q93a/cM973ufVPMpoim7JzS42HowffY7tHlyfZM8vzRs8vLwIvvVe312NvIW+i9y/sp14Kbzt3Hfelj6yPzOeLz3tfNd5HvKT+cX6BfsV+bv5p/tH+l/6MAw4DUgNqAgUCnwAWBp4IIQSFB64I6ebo8Aa+GNxDsErwo+GwILSQypDLkcahlqCy0eSo6NXjq+qkPpplMk0xrDIMwXtj6sIfhZuFzwn+ZTpwePr1q+pMIu4iFEa2RzMjZkXsj30X5RK2Juh9tHi2PbolhxCTG1MS8j/WLLY3tipsctyjucrx2vDi+KYGUEJOwK2Fwhv+MDTN6E50SixJvzzSbOW/mxVnaszJnHZ/NmM2ffSiJkBSbtDfpMz+MX80fTOYlb04eEPgKNgqeC72FZcJ+kYeoVPQ0xSOlNKUv1SN1fWp/mldaedoLsa+4UvwqPSh9W/r7jLCM3RnfMmMz67PIWUlZRyVqkgzJ2Wy97HnZHVIraZG0a47bnA1zBmQhsl05SM7MnKZcdaxRuiI3l38n787zzKvK+zA3Zu6hearzJPOuzLecv3L+0/yA/J8W4BcIFrQsNFi4bGH3Iu6i7YuRxcmLW5YYLSlc0rs0cOmeZdRlGcuuFtgWlBa8XR67vLlQt3BpYc93gd/VFikXyYo6V7iv2PY9/nvx920rHVZuWvm1WFh8qcS2pLzk8yrBqks/2P1Q8cO31Smr29Y4r9m6lrhWsvb2Oq91e0pVS/NLe9ZPXd9Qxi4rLnu7YfaGi+WO5ds2UjfKN3ZVhFY0bTLetHbT58q0yltVPlX1m3U2r9z8fotwy/Wt3lvrtuluK9n26Ufxj3e2B25vqDatLt9B3JG348nOmJ2tP3F+qtmlvatk15fdkt1deyL2nK1xqanZq7N3TS1aK6/t35e4r32/3/6mOuu67fWs+pIDcEB+4NnPST/fPhhysOUQ51DdYZPDm48wjxQ3IA3zGwYa0xq7muKbOo4GH21pdm8+8ovNL7uPGRyrOq5xfM0J6onCE99O5p8cPCU99eJ06umeltkt98/Enbl5dvrZtnMh5y6cDzh/ppXbevKCx4VjF90uHr3EudR42flywxWnK0euOl090ubc1nDN5VpTu2t7c8eUjhPXva6fvuF34/xN3s3Lt6bd6rgdfftOZ2Jn1x3hnb67mXdf3cu7N3R/6QPCg+KHKg/LH+k8qv7V4tf6Lueu491+3VceRz6+3yPoef5bzm+fewuf0J+UP9V/WtNn33esP6C//dmMZ73Ppc+HXhT9rvr75pfmLw//4f3HlYG4gd5XslffXq96o/Vm91vHty2D4YOP3mW9G3pf/EHrw56PnI+tn2I/PR2a+5n0ueKLxZfmryFfH3zL+vZNypfxR1oBHDbQlBSA17sB6PEAzHYA6ozR/nrEkNH/BCME/4lHe/ARcwbY0QkQtQAg9CrApkoAU0yfkQgQzsDi7oA6OCjGWC880rcPm8o+gPZ7HK5fJPwbG+3p/1L3Pz0MqzrCP/2fQvkMAUABEj0AAABWZVhJZk1NACoAAAAIAAGHaQAEAAAAAQAAABoAAAAAAAOShgAHAAAAEgAAAESgAgAEAAAAAQAAAFSgAwAEAAAAAQAAAFIAAAAAQVNDSUkAAABTY3JlZW5zaG90s1fe9wAAAdRpVFh0WE1MOmNvbS5hZG9iZS54bXAAAAAAADx4OnhtcG1ldGEgeG1sbnM6eD0iYWRvYmU6bnM6bWV0YS8iIHg6eG1wdGs9IlhNUCBDb3JlIDYuMC4wIj4KICAgPHJkZjpSREYgeG1sbnM6cmRmPSJodHRwOi8vd3d3LnczLm9yZy8xOTk5LzAyLzIyLXJkZi1zeW50YXgtbnMjIj4KICAgICAgPHJkZjpEZXNjcmlwdGlvbiByZGY6YWJvdXQ9IiIKICAgICAgICAgICAgeG1sbnM6ZXhpZj0iaHR0cDovL25zLmFkb2JlLmNvbS9leGlmLzEuMC8iPgogICAgICAgICA8ZXhpZjpQaXhlbFlEaW1lbnNpb24+ODI8L2V4aWY6UGl4ZWxZRGltZW5zaW9uPgogICAgICAgICA8ZXhpZjpQaXhlbFhEaW1lbnNpb24+ODQ8L2V4aWY6UGl4ZWxYRGltZW5zaW9uPgogICAgICAgICA8ZXhpZjpVc2VyQ29tbWVudD5TY3JlZW5zaG90PC9leGlmOlVzZXJDb21tZW50PgogICAgICA8L3JkZjpEZXNjcmlwdGlvbj4KICAgPC9yZGY6UkRGPgo8L3g6eG1wbWV0YT4KU0y3KgAAEx5JREFUeAHtXWuQVdWVXq2oZWj9Z6KpmpoymUxNZaKg4pRjEqF8YAKSKIo2hJc8GqXxBZKAUSOmhCASad4gNNC8QvNGwcHHJGpMYkQENJkZxzz+BJH4J3SjlpYw61vnfPvsc+4+9557uzs/ptjaZ+299lrfWmftddbZd/fVrjtx4sRJ/RH8fPbZZ0bRP3nypJxq5SNQV1cn+Dn99NPltNNOM9qDgfz000/lk08+sR8G9lRQ8wOKQDKIZ5xxhpx55pkCagFFMD/88EM577zzDOFUIPMDmZ1BYNE++OADoz2QjchMBBSBZBrb7KlL4QggfshYl6EfffSRU/7vd951fXSiNfBY8ap4HOsWlaOek8/BK5GjFadIiYQmU9pLBomA14umi8pBsVT2wn/8B0NE/M4666wooMxSz5aMbrzLAKJ7jYC0BMeYSjEbB6JWqgDRPefh+PbMtGc/Ow74E6lDkHbMa89vjgtSEyNWnTwwpQkcayibiONpGPHFFE2Fr+qWNdKwVO1c4pLWjlRes0vwAyB8kfdA3eSPcyXmubF2sItCImEzFcDzRWvqE5e0IogJ6uWkeuMcojYpUZJx1EvGlKiKmjouSeNW0zIU7Epv9vipTBC6uMeYkFaEpyBpSiHINIn8mRRAzYMeeZr2xtdJWwz1AhmKBodSPDJstroLVUl9beNxIo86b1STCnXqnfO1Tru6c9F/QD3vMxwaoAfZccwnm7Yo7lGXoR4v6UKxQisgUgGh/HR345e3Xv1s2Qx1dVMXN/vIl5sr6kY6Z9JawbkSJhmqa129WE2N+H52Ru9mynMmVnPZSx8ox3GIRjmfnSmbod2dHd2HHyETnzR7890xDmYo1sdeUvBEB/Z2B42GRnHxszQ1CYAqmo8LVYzR2HdwWUFnVIVtTi+soalxpMhaymxN8DljZgnGQQ6NMLOTZTM0K+zuFFiZRhZpZrrTQ+KSdhowB6Cz+MEMha3gNipeUmam7xN5XHV/riv6xCWtiGmCeunOfSpsZFp1GRorh1Yx+9LK2On0kDZJKwJSkDSlEGSaRP5MCiB3kJOh+gZDymUbrNnKR9QNtUPxEh4ZWawCY6qC9uzZU+tjnRw/ftw0bc4X8PxKSisFVIUKrLHG6uJ9qmLmBNR8rnyBkxVaAZEKCCIjhw2Rm28caHLbdu6R1o1bnE5X4DuwLuiEA6qrHczQjEFXN1U++8iXm8vA5A57XfyvMm3yJDn/C593Mghu/2v6yePzFsuht3/vHhgTyGapP2tzuDFdAmSppix3o6T+4xd9viKHwHQj0SeHNBxQzlag3ZUdCOC0KZOk98VfMw9e/c3rsmjZKntsmxpvl69fcbn8dNaP5OBbv5c5Gtj3/xqdlldw15uOPKf/pJ5Azd3cgBbJUNaqrtqn1tf3lNuHN8iQwYPshv7wxz/LgqUtGrjf2Rjnrg89OtsC3TRhtPS66KuybuVC2aplYK2WgeN6au6SEklEB11XQ8caiigyW0FVkbvRzuxTcwMKH6puXGpSD4AsUm/KukNuGiRjRg4VBPX48Q9l1dqfyZYdz9gcD7CpgwA3TpqqdfUGGYX6+t0Bcv21faV1wxbZ8fSzFOsWmuc/jQUDisUtlKFEIY1Ki73xc2uqyvpOXdLrIrmnaZx85ctfMpTN25+2YHZ0HNe67EvSSEIR8L3P/1xGDb9VBn9ngEwcP0quv6avLFnZauUgkQz0zFe9dGafCoxMCwY0I1P1MBSGbGwuOP8LGsjxctXXrzD8A4felsceb5Yj7x+tGEjfoQ7dRi1avlq27dwt37+vSS7+2lflicceFtTdpSvWan39qy+e9OkkaTKjvSDTJPJnIoDcgNaUobBmKx9RN9QO96nn6CN92803yrjR3zMPEMDmRU/Jy6/+pqpAQtnha/+9I0flvmmPyDf0hTWxcbS9uPDywhYLZaBDy0hKwbKLCATTMWussdI7AR8AM6GWG1CYQiONRlVeM8oDvnWtTJ40weokMmvTlp3S0rqhs1ZSTiEzX31tn9XWwVpbRw69xcrBkhVr5IWfv5KS7Y5BTkBPyglNKcSDCVeLce5FL+19sYy/fbiAou3+jxdk3sJlUdboOFsOTKjAhb6R+iqr17fZ2x91tb/W1an33Cn9r+4r6362Vfev/xVniqdpXb3wza93z/0paRKNiINrtuUENCtW2/iLWifHjxkuN3y7vwHsP/CWBnKpvPPun2xc6aVTyWrmASgRx1OADwDb9JGfOG6kbbOw1XruxZdl3aatcvRoTn2Nn0vik5YYCDDCAUXgNb1AmKUB3bKsxjEjZOitg+Wc+nqrb0+tWiu7n33eAG2fp8DMYFBnqAaDVPEpnCPsu3/4k0yePkO3Vv20BOCT1lVy5RV9ZPuuZy2wdiOmrBfW0NQ4Qs7uUwMJGv1e3gArXABZTWscM9KC2d7RIY/OmiPPPPtcFDSABMDIIq3GVhFZ4D734kvyRPNiKzX1PT8nI4beXES1KplwhipE9i3P1a4KXYWRoUuao4A+OX+ZtB/vcJnpY7lsVWZ3BBWnVRMbsU/t55stuU83aTesl0L7VKdVPEMTleK9/QcOyYyZczQjjlsd3bF5jTTcclMwYLW+mIp4g03/+paFFkx8CpvTvMQOVsrqclVJU8JBpknkHjBbhqKOInXiH/ZBK/0AHWq7du+VQTcPl+Utay1bJ999h+xoW6Nv/ItMwDC1GBEPSimeN0eZorS3voDWtyySJt2X1muGtm7YLN8b0yR7X/iF3Xzko9qjjSy1W499szl1mTK4uUDLfeQDsikW14g0NZkZoI4ub2m1OvrID6fa9gllABn86Ky59ukoo+KGRfCdcNzBadUP9Nivtx7/oWFvunj5Kjly9IPo6fAeh1rwYzNBEgwoYm9ZoBQGMc4aJo9URQItWl1OHH7viB5qTJE+l/aWHz1wvwV2x6Y1snHzdlm5er206+d3NiQA7puU/HIUByujh98mOGhBe1+3RT+Zu0AO6DGf+e8FEn6jcb9tA94MqX/nxtNLZp9qet4l95H3ZLq8+8abB+U7Q0bIkwuWWn0dOuQm2b5ptQzUT1K1tm9dd7VsWrPMgok6uXBZizSMukMOHIqO/mrFDetl0yuRCmYochL/2JZMdVNbs1gXkFxI0LwW1cPw7Ia2bfL0nuekcewIe1k9PH2KNAy5UeYtWC77Dx5y2WnlKscgTqvunojTqgvNyBacVq3bJP5pVVYVY3PeKO40bllB93zqvM3pJRQM6ivNCagnEeiaQxl+iJcRCQ5RX386f6nW1+dl8l132stqcfNseemXv9ZPVcu1vr5vesQnveD8z2sg06dVC5aslP/VTXwtn8CISxp0tgAzHFCUihN6ATqWL7bCLqmPH+JhvlyG+vr/o19Dv+Ou+6XvVVdaYPt+49+txm7ast0OUVBfUQJ7ap1s0NOqsaOGmbqdVi1eIa/UcFrl+0f/SX3fgn0IBlo4oBDkUpGGWQHIzrFeeuVX8vIrv7YzgAatreNGD9faep2s0JcWGo79cJaKvW3b1l2ycs2GmjIy6yVvkzQ7XzLOEcwNaJJZ0NTliImjyvVZMMjV5eKh9iU4kKjQPEDsW5/Z87wFFgF9aNpkp7xn74syb5GeVnV4Z5xutmgn8hL+0ayvaTxO5FFfIe7nBjQgWxMLvtTa3tP6iX0qjvsWz5ttME33TdP961v2+GNJO4NfxK9q8XMDmmRWnHcxcWmo3gRYGR+Tc9XMRKEh96D79h908thyIZCcI3UCVXZwn7wPX5U8UpvjIKbe/sCpVr8PrXbJnKnqO39HU9U7l6MRzFAsQJKhuC3lxMTh6LjcPtXJxRngxtV0aBo0bqx58IfZCer8i3Uon0dNRyeJl4WAns8zHGKTQiDTimUoAKpoIfEQrwrItGgAjCzStELnR8QlzUMMZijWJslQXYbUmWAM5S9fbMVn0SBxOEd+rRR4zEwfg7xq7dA/HyvUJy5pSAa8Yhka0uZSkaoMu6Qhta7ghfC9c4+uMFGCQZukJQIxIydDUVtUIlUkFSo1JiRMqHBMHMW0spEBdIKrC1prs4zKmtSx+augzg3yyCgxGHlRLkOpSupDgBdquRmapxACqYVHfNJaMNxKlVHuFH4Z3LypcIbq4un/OEP9hTteXvEsMFVT43lPjDeKfRoygFO+E+SR+nPl+n5GISvzzkzLzfn4Pp7PR5++kfrz4EV35nM7U0PTOMno75gS3W2qFvzcRx7LY6sXU6x4lHGkcfZxHrPIxvgHEf6Xf/6KTJwwRn+X1DPG8uYp5+lQN0S5Yqm52KZ5pDhqxNlxPPoV0571n5PbRzTIP33pQoNM4eX44uNCHuPoh14lND+giUzlXmApFy1baW+IpgljZevG1fLdQd92OAFxVgknU1OHwKQeCFgDrr9G1iybHx39KaOldaMn0TXdYA3V+OsCnNAr3MAoRJVtDaul8xDx2oLFT8l2/YrhpDvHyY2DBsjMGQ8qHai/LFspr79xICvurHgQwa5lSHBGmbGrSCB/G4XvVI0bPczOV6GK0yoc++EstatbMKDp2KRHhR1Qtb8cfk+mP/xj2bFrjzTdMVb+rc8l+rNQv164R2bPnZ/6pVxh3AKC9Bil5r67Jth5KtTePPiWrFizXt488Lah1HKyX8l8MKBaiaxERN8/iyD87/Vg3lIytS/V20iNabpOXnv9DXlt3xv6tcIbZNrUeyxjr+l3lazd0KYZ2+KyNUY1dGpnadkMRSRjkPF6MI0DanxzBYfRTy5YZseAUebq3agsMtk9fFlDNY4L1VCuuG8jxPPnQ/3tu3bLtQMHy2L9jeQ559TbC2vv05vl6n7fLBEnPmmJQA6j3zevlJ1trfr1yREWzBWr18lNt43SYOoX1QKtWvwARIoVzFBIoIbiM47/LclkOROuSwmkRoF96rG/tcvCpSv0m2+7ZfrUey2YzU/M1Lr6pjw4Y6YcPnzEHPSTx7/pvAz94gXnC75EcdklvUz/pV/+SuY2L41/yRdlpE3EF9ZZUn+uaD96UtPSuQFNxPzbSbg192I41NdJk6dZXZ1+/71y+WWXyN5dm60MLFmxWtrbOwqZwCM9YexIGXZb9E26d979o/4WdYngIBrpgH+7q4Wgw488kg0pohfuuzBGn9QS0gYeX5kRK9Lz5ZUT68c0ApDf7tsvgxtGyewn5uvviDpkxLBbZe/ONhnecIvJA9DPyggz4uH7p89sW2/BxO/h52ogh45qlH37D0S2YpvqYRoLTpIXU5VI6fh28vulSxUOaKmccbgipDlipewCCq0bNsl1N9wi6zZutvr6gyl3a8a2WeZmAfFVnj3bN8rUe5usTuILEwMHD5MN+q3kso1+kHrCZJF6U1V1cx95PysiRKyhPURK8SRFV6y0X1uTMf3Q+cA+tURNxf92rF1mzZmn35Jrk5mP/FD6XNZbVi5tlv/8RfIfGzz5+I/l6r7RSwyP9UOP/kS/IR1/GcLffNK8T2NXkaBZUfJ4N75aNf3cgJaCRMEEP72K6VGpXg6HaqQe7mGtr6MbJ8nlfS6Vxx55ILULQDARwAdnzLI6CfRq95OeSedcNsBuospObkBLMzSLjAAja6PGEamFPbUv1dtIjYmH20PKRMRRHb6u9bW/lgF8fEVtRVu7sU2WPLXa+tUG0mFnTerYyqqiOjfII8MsVr7kBrSyaiIBm9kW4mVlio6x+Ucg8Zx24O2vlPikRbFScgWUC4ikIIMB5RsvJVkyYE1NqLe+lrvRbbMqKS2wT7WUj+/C05RjWl/9QPpz1d40b8XVTQXLPvLl5py+ez7J6ZLz0FpvJ3Ei1etiuBR2ZtAdpoIZCrvV1FA4lnxDiKPk01RUaZVfpIbypgPiEXIkwD4p1aqisTKy0zJSlZn5qCl+libFNRaCIQhnWlX70IxuyRD+oZFGowLXKhVC4iFeActpEYKQerNkkXpTqW44QzXylTM0haMD1tJo4bpjn8rsIfU9CPH8+UL9GISZ6euQV8lOF2Zo3pu30pr6bnt9qpHqFLuknnSXdkP42ZdWnsFwhqq01T0uB97OoYKRh2r8ZEeKIUekFp5UTVUbqTHBY9t0gdQw+TREss5dqlZLiZ01qWNkKJoTQScQkxoz1NCAWKiFpEO8QmAFhYhPWlAtLVaDcn6Gpr5jz7WnveyYfJ+ypibUW9+Simur3Yl9avbe6SGp71nRvqubCpJ95DEH7GyrMUOzMOXG2VstJ1tgrovhylmsxZTLUP9zcRR5zax4ZU66zFHzsBJamhLPUtVSVagYUc6SGnCRGko7CpMVpwWIsE9KtaporJy3Tw3FoQcCyR/fWNv6VfEQqNqUxL1o7K4ISdxchwxQ4PvjbF8n4/lSsYiTrx/PE7IEIGYoSU+lR5xMuEkP0KX20/OQwZ+tQBwtQ/lXVzCB1uui6D86jUanrkUiwD8BpLGM/g4Q/nzNqVZ7BPCnfxDUOv2jICfxh0GOHTtmv9Npb2+Xjz/+WPC3LfjXA2o38/9TE482ErFHjx5y9tln6/82qV7OPfdco/8HqLD8Y/CRWd4AAAAASUVORK5CYII=;" parent="2yRa0TrZLxSC5hwkOfu0-1" vertex="1">
          <mxGeometry x="420" y="45" width="60" height="58.58" as="geometry" />
        </mxCell>
        <mxCell id="VavkJtrelhXVS9yx8hgA-30" value="&lt;font&gt;Service Quota API&lt;/font&gt;" style="text;html=1;align=center;verticalAlign=middle;whiteSpace=wrap;rounded=0;fontStyle=1" parent="2yRa0TrZLxSC5hwkOfu0-1" vertex="1">
          <mxGeometry x="395" y="94.99999999999994" width="110" height="30" as="geometry" />
        </mxCell>
        <mxCell id="VavkJtrelhXVS9yx8hgA-32" value="" style="edgeStyle=none;orthogonalLoop=1;jettySize=auto;html=1;rounded=0;" parent="2yRa0TrZLxSC5hwkOfu0-1" edge="1">
          <mxGeometry width="80" relative="1" as="geometry">
            <mxPoint x="106.00999999999999" y="73.79000000000002" as="sourcePoint" />
            <mxPoint x="228.25" y="74.78000000000003" as="targetPoint" />
            <Array as="points" />
          </mxGeometry>
        </mxCell>
        <mxCell id="VavkJtrelhXVS9yx8hgA-40" value="" style="sketch=0;outlineConnect=0;fontColor=#232F3E;gradientColor=none;fillColor=#E7157B;strokeColor=none;dashed=0;verticalLabelPosition=bottom;verticalAlign=top;align=center;html=1;fontSize=12;fontStyle=0;aspect=fixed;pointerEvents=1;shape=mxgraph.aws4.event_time_based;" parent="2yRa0TrZLxSC5hwkOfu0-1" vertex="1">
          <mxGeometry x="140" y="32" width="36" height="36" as="geometry" />
        </mxCell>
        <mxCell id="VavkJtrelhXVS9yx8hgA-33" value="" style="edgeStyle=none;orthogonalLoop=1;jettySize=auto;html=1;rounded=0;" parent="2yRa0TrZLxSC5hwkOfu0-1" edge="1">
          <mxGeometry width="80" relative="1" as="geometry">
            <mxPoint x="285.25" y="73.79000000000002" as="sourcePoint" />
            <mxPoint x="420.25" y="73.79000000000002" as="targetPoint" />
            <Array as="points" />
          </mxGeometry>
        </mxCell>
        <mxCell id="VavkJtrelhXVS9yx8hgA-25" value="" style="dashed=0;outlineConnect=0;html=1;align=center;labelPosition=center;verticalLabelPosition=bottom;verticalAlign=top;shape=mxgraph.webicons.json_2;gradientColor=#DFDEDE" parent="2yRa0TrZLxSC5hwkOfu0-1" vertex="1">
          <mxGeometry x="330.00000000000006" y="18.99999999999997" width="41.93" height="38.72" as="geometry" />
        </mxCell>
        <mxCell id="VavkJtrelhXVS9yx8hgA-26" value="&lt;font&gt;QuotaList.json&lt;/font&gt;" style="text;html=1;align=center;verticalAlign=middle;whiteSpace=wrap;rounded=0;fontStyle=1" parent="2yRa0TrZLxSC5hwkOfu0-1" vertex="1">
          <mxGeometry x="331.92999999999995" y="56.997419354838655" width="40" height="20.32258064516129" as="geometry" />
        </mxCell>
        <mxCell id="VavkJtrelhXVS9yx8hgA-6" value="" style="sketch=0;outlineConnect=0;fontColor=#232F3E;gradientColor=none;fillColor=#C925D1;strokeColor=none;dashed=0;verticalLabelPosition=bottom;verticalAlign=top;align=center;html=1;fontSize=12;fontStyle=0;aspect=fixed;pointerEvents=1;shape=mxgraph.aws4.table;" parent="2yRa0TrZLxSC5hwkOfu0-1" vertex="1">
          <mxGeometry x="420" y="170.75" width="50.75" height="50.75" as="geometry" />
        </mxCell>
        <mxCell id="VavkJtrelhXVS9yx8hgA-9" value="&lt;font&gt;QuotaGuardDDBTable&lt;/font&gt;" style="text;html=1;align=center;verticalAlign=middle;whiteSpace=wrap;rounded=0;fontStyle=1" parent="2yRa0TrZLxSC5hwkOfu0-1" vertex="1">
          <mxGeometry x="420" y="215.5" width="60" height="30" as="geometry" />
        </mxCell>
        <mxCell id="2yRa0TrZLxSC5hwkOfu0-5" value="" style="group" parent="2yRa0TrZLxSC5hwkOfu0-1" vertex="1" connectable="0">
          <mxGeometry x="183" y="118.58" width="69" height="221.81" as="geometry" />
        </mxCell>
        <mxCell id="VavkJtrelhXVS9yx8hgA-42" value="" style="sketch=0;outlineConnect=0;fontColor=#232F3E;gradientColor=none;fillColor=#E7157B;strokeColor=none;dashed=0;verticalLabelPosition=bottom;verticalAlign=top;align=center;html=1;fontSize=12;fontStyle=0;aspect=fixed;pointerEvents=1;shape=mxgraph.aws4.rule_3;" parent="2yRa0TrZLxSC5hwkOfu0-5" vertex="1">
          <mxGeometry x="7" y="48.86999999999999" width="62" height="54.05" as="geometry" />
        </mxCell>
        <mxCell id="VavkJtrelhXVS9yx8hgA-43" value="&lt;font&gt;QuotaGuardEventNotificationRule&lt;/font&gt;" style="text;html=1;align=center;verticalAlign=middle;whiteSpace=wrap;rounded=0;fontStyle=1" parent="2yRa0TrZLxSC5hwkOfu0-5" vertex="1">
          <mxGeometry y="96.92" width="60" height="30" as="geometry" />
        </mxCell>
        <mxCell id="VavkJtrelhXVS9yx8hgA-22" value="" style="sketch=0;outlineConnect=0;fontColor=#232F3E;gradientColor=none;fillColor=#E7157B;strokeColor=none;dashed=0;verticalLabelPosition=bottom;verticalAlign=top;align=center;html=1;fontSize=12;fontStyle=0;aspect=fixed;pointerEvents=1;shape=mxgraph.aws4.topic;" parent="2yRa0TrZLxSC5hwkOfu0-5" vertex="1">
          <mxGeometry x="11" y="151.42000000000002" width="50" height="42.95" as="geometry" />
        </mxCell>
        <mxCell id="VavkJtrelhXVS9yx8hgA-23" value="&lt;font&gt;QuotaThresholdSNSTopic&lt;/font&gt;" style="text;html=1;align=center;verticalAlign=middle;whiteSpace=wrap;rounded=0;fontStyle=1" parent="2yRa0TrZLxSC5hwkOfu0-5" vertex="1">
          <mxGeometry x="12" y="186.41819554277498" width="50" height="35.39180445722503" as="geometry" />
        </mxCell>
        <mxCell id="VavkJtrelhXVS9yx8hgA-50" value="" style="edgeStyle=none;orthogonalLoop=1;jettySize=auto;html=1;rounded=0;" parent="2yRa0TrZLxSC5hwkOfu0-5" edge="1">
          <mxGeometry width="100" relative="1" as="geometry">
            <mxPoint x="40" as="sourcePoint" />
            <mxPoint x="39.5" y="45.999999999999986" as="targetPoint" />
            <Array as="points" />
          </mxGeometry>
        </mxCell>
        <mxCell id="VavkJtrelhXVS9yx8hgA-45" value="" style="sketch=0;outlineConnect=0;fontColor=#232F3E;gradientColor=none;fillColor=#E7157B;strokeColor=none;dashed=0;verticalLabelPosition=bottom;verticalAlign=top;align=center;html=1;fontSize=12;fontStyle=0;aspect=fixed;pointerEvents=1;shape=mxgraph.aws4.event;" parent="2yRa0TrZLxSC5hwkOfu0-5" vertex="1">
          <mxGeometry x="15" y="9.420000000000002" width="20" height="20" as="geometry" />
        </mxCell>
        <mxCell id="VavkJtrelhXVS9yx8hgA-52" value="" style="edgeStyle=none;orthogonalLoop=1;jettySize=auto;html=1;rounded=0;" parent="2yRa0TrZLxSC5hwkOfu0-5" edge="1">
          <mxGeometry width="100" relative="1" as="geometry">
            <mxPoint x="36.5" y="118.42" as="sourcePoint" />
            <mxPoint x="36.5" y="146.42000000000002" as="targetPoint" />
            <Array as="points" />
          </mxGeometry>
        </mxCell>
        <mxCell id="VavkJtrelhXVS9yx8hgA-61" value="" style="edgeStyle=elbowEdgeStyle;endArrow=classic;html=1;rounded=0;endSize=6;startSize=6;elbow=vertical;exitX=1;exitY=0.75;exitDx=0;exitDy=0;" parent="2yRa0TrZLxSC5hwkOfu0-1" source="VavkJtrelhXVS9yx8hgA-13" edge="1">
          <mxGeometry width="50" height="50" relative="1" as="geometry">
            <mxPoint x="286" y="127" as="sourcePoint" />
            <mxPoint x="415" y="194" as="targetPoint" />
            <Array as="points">
              <mxPoint x="355" y="194" />
            </Array>
          </mxGeometry>
        </mxCell>
        <mxCell id="VavkJtrelhXVS9yx8hgA-73" value="1" style="ellipse;whiteSpace=wrap;html=1;aspect=fixed;rotation=0;gradientColor=#0057D2;strokeColor=none;gradientDirection=east;fillColor=#2395FF;rounded=0;pointerEvents=0;fontFamily=Helvetica;fontSize=16;fontColor=#FFFFFF;spacingTop=4;spacingBottom=4;spacingLeft=4;spacingRight=4;points=[];fontStyle=1" parent="2yRa0TrZLxSC5hwkOfu0-1" vertex="1">
          <mxGeometry x="30" y="29" width="20" height="20" as="geometry" />
        </mxCell>
        <mxCell id="VavkJtrelhXVS9yx8hgA-74" value="2" style="ellipse;whiteSpace=wrap;html=1;aspect=fixed;rotation=0;gradientColor=#0057D2;strokeColor=none;gradientDirection=east;fillColor=#2395FF;rounded=0;pointerEvents=0;fontFamily=Helvetica;fontSize=16;fontColor=#FFFFFF;spacingTop=4;spacingBottom=4;spacingLeft=4;spacingRight=4;points=[];fontStyle=1" parent="2yRa0TrZLxSC5hwkOfu0-1" vertex="1">
          <mxGeometry x="401" y="29" width="20" height="20" as="geometry" />
        </mxCell>
        <mxCell id="VavkJtrelhXVS9yx8hgA-77" value="5" style="ellipse;whiteSpace=wrap;html=1;aspect=fixed;rotation=0;gradientColor=#0057D2;strokeColor=none;gradientDirection=east;fillColor=#2395FF;rounded=0;pointerEvents=0;fontFamily=Helvetica;fontSize=16;fontColor=#FFFFFF;spacingTop=4;spacingBottom=4;spacingLeft=4;spacingRight=4;points=[];fontStyle=1" parent="2yRa0TrZLxSC5hwkOfu0-1" vertex="1">
          <mxGeometry x="168" y="296" width="20" height="20" as="geometry" />
        </mxCell>
        <mxCell id="VavkJtrelhXVS9yx8hgA-78" value="6" style="ellipse;whiteSpace=wrap;html=1;aspect=fixed;rotation=0;gradientColor=#0057D2;strokeColor=none;gradientDirection=east;fillColor=#2395FF;rounded=0;pointerEvents=0;fontFamily=Helvetica;fontSize=16;fontColor=#FFFFFF;spacingTop=4;spacingBottom=4;spacingLeft=4;spacingRight=4;points=[];fontStyle=1" parent="2yRa0TrZLxSC5hwkOfu0-1" vertex="1">
          <mxGeometry x="395" y="167" width="20" height="20" as="geometry" />
        </mxCell>
        <mxCell id="2yRa0TrZLxSC5hwkOfu0-6" value="" style="group" parent="VavkJtrelhXVS9yx8hgA-1" vertex="1" connectable="0">
          <mxGeometry x="206" y="364.0118979151689" width="45" height="65.77810208483112" as="geometry" />
        </mxCell>
        <mxCell id="VavkJtrelhXVS9yx8hgA-56" value="" style="sketch=0;outlineConnect=0;fontColor=#232F3E;gradientColor=none;fillColor=#DD344C;strokeColor=none;dashed=0;verticalLabelPosition=bottom;verticalAlign=top;align=center;html=1;fontSize=12;fontStyle=0;aspect=fixed;shape=mxgraph.aws4.email;" parent="2yRa0TrZLxSC5hwkOfu0-6" vertex="1">
          <mxGeometry y="25.988102084831098" width="45" height="39.79" as="geometry" />
        </mxCell>
        <mxCell id="VavkJtrelhXVS9yx8hgA-57" value="" style="edgeStyle=none;orthogonalLoop=1;jettySize=auto;html=1;rounded=0;exitX=0.42;exitY=0.622;exitDx=0;exitDy=0;exitPerimeter=0;entryX=0.597;entryY=0.021;entryDx=0;entryDy=0;entryPerimeter=0;" parent="2yRa0TrZLxSC5hwkOfu0-6" edge="1">
          <mxGeometry width="100" relative="1" as="geometry">
            <mxPoint x="27" as="sourcePoint" />
            <mxPoint x="26.86499999999978" y="30.976600004765714" as="targetPoint" />
            <Array as="points" />
          </mxGeometry>
        </mxCell>
        <mxCell id="VavkJtrelhXVS9yx8hgA-75" value="3" style="ellipse;whiteSpace=wrap;html=1;aspect=fixed;rotation=0;gradientColor=#0057D2;strokeColor=none;gradientDirection=east;fillColor=#2395FF;rounded=0;pointerEvents=0;fontFamily=Helvetica;fontSize=16;fontColor=#FFFFFF;spacingTop=4;spacingBottom=4;spacingLeft=4;spacingRight=4;points=[];fontStyle=1" parent="1" vertex="1">
          <mxGeometry x="357" y="361" width="20" height="20" as="geometry" />
        </mxCell>
        <mxCell id="VavkJtrelhXVS9yx8hgA-76" value="4" style="ellipse;whiteSpace=wrap;html=1;aspect=fixed;rotation=0;gradientColor=#0057D2;strokeColor=none;gradientDirection=east;fillColor=#2395FF;rounded=0;pointerEvents=0;fontFamily=Helvetica;fontSize=16;fontColor=#FFFFFF;spacingTop=4;spacingBottom=4;spacingLeft=4;spacingRight=4;points=[];fontStyle=1" parent="1" vertex="1">
          <mxGeometry x="356" y="410" width="20" height="20" as="geometry" />
        </mxCell>
      </root>
    </mxGraphModel>
  </diagram>
  <diagram id="S-GkOc5itP_7GN5XBBmU" name="multi-account-v2">
    <mxGraphModel dx="2284" dy="879" grid="1" gridSize="10" guides="1" tooltips="1" connect="1" arrows="1" fold="1" page="1" pageScale="1" pageWidth="850" pageHeight="1100" math="0" shadow="0">
      <root>
        <mxCell id="0" />
        <mxCell id="1" parent="0" />
        <mxCell id="tEiwjrVFLXrb9t0FOtXx-1" value="AWS Account - Spoke" style="points=[[0,0],[0.25,0],[0.5,0],[0.75,0],[1,0],[1,0.25],[1,0.5],[1,0.75],[1,1],[0.75,1],[0.5,1],[0.25,1],[0,1],[0,0.75],[0,0.5],[0,0.25]];outlineConnect=0;gradientColor=none;html=1;whiteSpace=wrap;fontSize=12;fontStyle=0;container=1;pointerEvents=0;collapsible=0;recursiveResize=0;shape=mxgraph.aws4.group;grIcon=mxgraph.aws4.group_account;strokeColor=#CD2264;fillColor=none;verticalAlign=top;align=left;spacingLeft=30;fontColor=#CD2264;dashed=0;movable=1;resizable=1;rotatable=1;deletable=1;editable=1;locked=0;connectable=1;" vertex="1" parent="1">
          <mxGeometry x="183" y="220" width="567" height="450" as="geometry" />
        </mxCell>
        <mxCell id="tEiwjrVFLXrb9t0FOtXx-2" value="Region" style="points=[[0,0],[0.25,0],[0.5,0],[0.75,0],[1,0],[1,0.25],[1,0.5],[1,0.75],[1,1],[0.75,1],[0.5,1],[0.25,1],[0,1],[0,0.75],[0,0.5],[0,0.25]];outlineConnect=0;gradientColor=none;html=1;whiteSpace=wrap;fontSize=12;fontStyle=0;container=1;pointerEvents=0;collapsible=0;recursiveResize=0;shape=mxgraph.aws4.group;grIcon=mxgraph.aws4.group_region;strokeColor=#00A4A6;fillColor=none;verticalAlign=top;align=left;spacingLeft=30;fontColor=#147EBA;dashed=1;" vertex="1" parent="tEiwjrVFLXrb9t0FOtXx-1">
          <mxGeometry x="14" y="34" width="541.5" height="406" as="geometry" />
        </mxCell>
        <mxCell id="tEiwjrVFLXrb9t0FOtXx-3" value="" style="group" vertex="1" connectable="0" parent="tEiwjrVFLXrb9t0FOtXx-2">
          <mxGeometry x="50" y="49" width="60" height="72" as="geometry" />
        </mxCell>
        <mxCell id="tEiwjrVFLXrb9t0FOtXx-4" value="" style="sketch=0;outlineConnect=0;fontColor=#232F3E;gradientColor=none;fillColor=#E7157B;strokeColor=none;dashed=0;verticalLabelPosition=bottom;verticalAlign=top;align=center;html=1;fontSize=12;fontStyle=0;aspect=fixed;pointerEvents=1;shape=mxgraph.aws4.rule_2;" vertex="1" parent="tEiwjrVFLXrb9t0FOtXx-3">
          <mxGeometry width="51.32" height="50" as="geometry" />
        </mxCell>
        <mxCell id="tEiwjrVFLXrb9t0FOtXx-5" value="&lt;font&gt;QuotaGuardEventRule&lt;/font&gt;" style="text;html=1;align=center;verticalAlign=middle;whiteSpace=wrap;rounded=0;fontStyle=1" vertex="1" parent="tEiwjrVFLXrb9t0FOtXx-3">
          <mxGeometry y="45" width="60" height="30" as="geometry" />
        </mxCell>
        <mxCell id="tEiwjrVFLXrb9t0FOtXx-6" value="" style="group" vertex="1" connectable="0" parent="tEiwjrVFLXrb9t0FOtXx-2">
          <mxGeometry x="228.25" y="45" width="60" height="80" as="geometry" />
        </mxCell>
        <mxCell id="tEiwjrVFLXrb9t0FOtXx-7" value="" style="outlineConnect=0;dashed=0;verticalLabelPosition=bottom;verticalAlign=top;align=center;html=1;shape=mxgraph.aws3.lambda_function;fillColor=#F58534;gradientColor=none;" vertex="1" parent="tEiwjrVFLXrb9t0FOtXx-6">
          <mxGeometry x="6.75" width="46.5" height="57" as="geometry" />
        </mxCell>
        <mxCell id="tEiwjrVFLXrb9t0FOtXx-8" value="&lt;font&gt;QuotaGuardLambda&lt;/font&gt;" style="text;html=1;align=center;verticalAlign=middle;whiteSpace=wrap;rounded=0;fontStyle=1" vertex="1" parent="tEiwjrVFLXrb9t0FOtXx-6">
          <mxGeometry y="50" width="60" height="30" as="geometry" />
        </mxCell>
        <mxCell id="tEiwjrVFLXrb9t0FOtXx-9" value="" style="shape=image;verticalLabelPosition=bottom;labelBackgroundColor=default;verticalAlign=top;aspect=fixed;imageAspect=0;image=data:image/png,iVBORw0KGgoAAAANSUhEUgAAAFQAAABSCAYAAADKMvPcAAAKsmlDQ1BJQ0MgUHJvZmlsZQAASImVlwdU09cXx+/vlx0SAgQiICPsJcgmgIywAyjIBlEJSYAwQgwEFTdSrGAdiIjgqGhVRME6AKkTB04EF+6CFAW1FgcuHP0Bh9D2v87/5rzcz7m57/vue+e9c24A6Gy+VJqJqgBkSXJlEYE+7Lj4BDapD2hABAqogh5fkCPlhoeHAmZj/u/27jYgw/6G9bDWv/7+X01VKMoRACDhGCcLcwRZGB/GxieBVJYLgDuAxY3m5kqH+SbG6jKsQIz7hjl1lD8Pc/II41VGcqIifDE2BiDT+HxZKgDNFouz8wSpmA5teC1biVAswXgpxp5ZWdlCjE9hbI7lSDEe1uck/0Un9W+ayQpNPj9VwaN7GTGynzhHmsmf/38ex/+2rEz52Bpm2KClyYIiMM/Czuy3jOwQBUuSp4WNsVg4kj/CafKg6DEW5PgmjHFOZiRvjIV8vxCFTua00DFOEQcocsS5vKgxFuX4R46xLDtCsW6KzJc7xnzZeA3yjGhFPE3EU+jnp0XFjnGeOGaaoraMyJDxHF9FXCaPUOxFJAn0GV83QHEOWTl/2buYp5ibmxYVpDgH/nj9Igl3XDMnTlGbUOTnP54TrciX5voo1pJmhivyRZmBinhOXqRibi52OcfnhivOMJ0fHD7G4Af+EIp92BAO9uAIduAKWLW5onm5w5vxzZbOl4lT03LZXOzFidg8icBmEtve1t4RYPj9jl6PNxEj7xJhnRiPZe/ErvU77M2sG48llwE0FgFo3huPGW8FYBQCNLQI5LK80Rh++IsAVGCAOmiBHhiBOVhj9TmDO3hjFQdDGERBPMwCAaRBFshgLiyEZVAEJbAWNkAlbIMdsAf2w0FohGNwGs7DZWiHW3AfuqAXnsMAvIMhBEFICB1hIlqIPmKCWCH2CAfxRPyRUCQCiUeSkFREgsiRhchypAQpRSqR7UgN8jNyFDmNXEQ6kLtIN9KPvEY+oTiUhqqjuqgpOhnloFw0BI1CZ6Kp6Bw0Hy1EV6MVaDW6D21AT6OX0VtoF/ocHcQBTgnHwhngrHEcnC8uDJeAS8HJcItxxbhyXDWuDteMa8XdwHXhXuA+4ol4Jp6Nt8a744Pw0XgBfg5+MX4VvhK/B9+AP4u/ge/GD+C/EugEHYIVwY3AI8QRUglzCUWEcsIuwhHCOcItQi/hHZFIZBHNiC7EIGI8MZ24gLiKuIVYTzxF7CD2EAdJJJIWyYrkQQoj8Um5pCLSJtI+0knSdVIv6QNZiaxPticHkBPIEnIBuZy8l3yCfJ38lDxEUaGYUNwoYRQhZT5lDWUnpZlyjdJLGaKqUs2oHtQoajp1GbWCWkc9R31AfaOkpGSo5Ko0XUmstFSpQumA0gWlbqWPNDWaJc2XlkiT01bTdtNO0e7S3tDpdFO6Nz2BnktfTa+hn6E/on9QZirbKPOUhcpLlKuUG5SvK79kUBgmDC5jFiOfUc44xLjGeKFCUTFV8VXhqyxWqVI5qtKpMqjKVLVTDVPNUl2lulf1omqfGknNVM1fTahWqLZD7YxaDxPHNGL6MgXM5cydzHPMXnWiupk6Tz1dvUR9v3qb+oCGmoajRozGPI0qjeMaXSwcy5TFY2Wy1rAOsm6zPk3QncCdIJqwckLdhOsT3mtO1PTWFGkWa9Zr3tL8pMXW8tfK0Fqn1aj1UBuvbak9XXuu9lbtc9ovJqpPdJ8omFg88eDEezqojqVOhM4CnR06V3QGdfV0A3Wlupt0z+i+0GPpeeul65XpndDr12fqe+qL9cv0T+o/Y2uwuexMdgX7LHvAQMcgyEBusN2gzWDI0Mww2rDAsN7woRHViGOUYlRm1GI0YKxvPNV4oXGt8T0TignHJM1ko0mryXtTM9NY0xWmjaZ9ZppmPLN8s1qzB+Z0cy/zOebV5jctiBYciwyLLRbtlqilk2WaZZXlNSvUytlKbLXFqmMSYZLrJMmk6kmd1jRrrnWeda11tw3LJtSmwKbR5uVk48kJk9dNbp381dbJNtN2p+19OzW7YLsCu2a71/aW9gL7KvubDnSHAIclDk0OrxytHEWOWx3vODGdpjqtcGpx+uLs4ixzrnPudzF2SXLZ7NLJUeeEc1ZxLrgSXH1cl7gec/3o5uyW63bQ7Q93a/cM973ufVPMpoim7JzS42HowffY7tHlyfZM8vzRs8vLwIvvVe312NvIW+i9y/sp14Kbzt3Hfelj6yPzOeLz3tfNd5HvKT+cX6BfsV+bv5p/tH+l/6MAw4DUgNqAgUCnwAWBp4IIQSFB64I6ebo8Aa+GNxDsErwo+GwILSQypDLkcahlqCy0eSo6NXjq+qkPpplMk0xrDIMwXtj6sIfhZuFzwn+ZTpwePr1q+pMIu4iFEa2RzMjZkXsj30X5RK2Juh9tHi2PbolhxCTG1MS8j/WLLY3tipsctyjucrx2vDi+KYGUEJOwK2Fwhv+MDTN6E50SixJvzzSbOW/mxVnaszJnHZ/NmM2ffSiJkBSbtDfpMz+MX80fTOYlb04eEPgKNgqeC72FZcJ+kYeoVPQ0xSOlNKUv1SN1fWp/mldaedoLsa+4UvwqPSh9W/r7jLCM3RnfMmMz67PIWUlZRyVqkgzJ2Wy97HnZHVIraZG0a47bnA1zBmQhsl05SM7MnKZcdaxRuiI3l38n787zzKvK+zA3Zu6hearzJPOuzLecv3L+0/yA/J8W4BcIFrQsNFi4bGH3Iu6i7YuRxcmLW5YYLSlc0rs0cOmeZdRlGcuuFtgWlBa8XR67vLlQt3BpYc93gd/VFikXyYo6V7iv2PY9/nvx920rHVZuWvm1WFh8qcS2pLzk8yrBqks/2P1Q8cO31Smr29Y4r9m6lrhWsvb2Oq91e0pVS/NLe9ZPXd9Qxi4rLnu7YfaGi+WO5ds2UjfKN3ZVhFY0bTLetHbT58q0yltVPlX1m3U2r9z8fotwy/Wt3lvrtuluK9n26Ufxj3e2B25vqDatLt9B3JG348nOmJ2tP3F+qtmlvatk15fdkt1deyL2nK1xqanZq7N3TS1aK6/t35e4r32/3/6mOuu67fWs+pIDcEB+4NnPST/fPhhysOUQ51DdYZPDm48wjxQ3IA3zGwYa0xq7muKbOo4GH21pdm8+8ovNL7uPGRyrOq5xfM0J6onCE99O5p8cPCU99eJ06umeltkt98/Enbl5dvrZtnMh5y6cDzh/ppXbevKCx4VjF90uHr3EudR42flywxWnK0euOl090ubc1nDN5VpTu2t7c8eUjhPXva6fvuF34/xN3s3Lt6bd6rgdfftOZ2Jn1x3hnb67mXdf3cu7N3R/6QPCg+KHKg/LH+k8qv7V4tf6Lueu491+3VceRz6+3yPoef5bzm+fewuf0J+UP9V/WtNn33esP6C//dmMZ73Ppc+HXhT9rvr75pfmLw//4f3HlYG4gd5XslffXq96o/Vm91vHty2D4YOP3mW9G3pf/EHrw56PnI+tn2I/PR2a+5n0ueKLxZfmryFfH3zL+vZNypfxR1oBHDbQlBSA17sB6PEAzHYA6ozR/nrEkNH/BCME/4lHe/ARcwbY0QkQtQAg9CrApkoAU0yfkQgQzsDi7oA6OCjGWC880rcPm8o+gPZ7HK5fJPwbG+3p/1L3Pz0MqzrCP/2fQvkMAUABEj0AAABWZVhJZk1NACoAAAAIAAGHaQAEAAAAAQAAABoAAAAAAAOShgAHAAAAEgAAAESgAgAEAAAAAQAAAFSgAwAEAAAAAQAAAFIAAAAAQVNDSUkAAABTY3JlZW5zaG90s1fe9wAAAdRpVFh0WE1MOmNvbS5hZG9iZS54bXAAAAAAADx4OnhtcG1ldGEgeG1sbnM6eD0iYWRvYmU6bnM6bWV0YS8iIHg6eG1wdGs9IlhNUCBDb3JlIDYuMC4wIj4KICAgPHJkZjpSREYgeG1sbnM6cmRmPSJodHRwOi8vd3d3LnczLm9yZy8xOTk5LzAyLzIyLXJkZi1zeW50YXgtbnMjIj4KICAgICAgPHJkZjpEZXNjcmlwdGlvbiByZGY6YWJvdXQ9IiIKICAgICAgICAgICAgeG1sbnM6ZXhpZj0iaHR0cDovL25zLmFkb2JlLmNvbS9leGlmLzEuMC8iPgogICAgICAgICA8ZXhpZjpQaXhlbFlEaW1lbnNpb24+ODI8L2V4aWY6UGl4ZWxZRGltZW5zaW9uPgogICAgICAgICA8ZXhpZjpQaXhlbFhEaW1lbnNpb24+ODQ8L2V4aWY6UGl4ZWxYRGltZW5zaW9uPgogICAgICAgICA8ZXhpZjpVc2VyQ29tbWVudD5TY3JlZW5zaG90PC9leGlmOlVzZXJDb21tZW50PgogICAgICA8L3JkZjpEZXNjcmlwdGlvbj4KICAgPC9yZGY6UkRGPgo8L3g6eG1wbWV0YT4KU0y3KgAAEx5JREFUeAHtXWuQVdWVXq2oZWj9Z6KpmpoymUxNZaKg4pRjEqF8YAKSKIo2hJc8GqXxBZKAUSOmhCASad4gNNC8QvNGwcHHJGpMYkQENJkZxzz+BJH4J3SjlpYw61vnfPvsc+4+9557uzs/ptjaZ+299lrfWmftddbZd/fVrjtx4sRJ/RH8fPbZZ0bRP3nypJxq5SNQV1cn+Dn99NPltNNOM9qDgfz000/lk08+sR8G9lRQ8wOKQDKIZ5xxhpx55pkCagFFMD/88EM577zzDOFUIPMDmZ1BYNE++OADoz2QjchMBBSBZBrb7KlL4QggfshYl6EfffSRU/7vd951fXSiNfBY8ap4HOsWlaOek8/BK5GjFadIiYQmU9pLBomA14umi8pBsVT2wn/8B0NE/M4666wooMxSz5aMbrzLAKJ7jYC0BMeYSjEbB6JWqgDRPefh+PbMtGc/Ow74E6lDkHbMa89vjgtSEyNWnTwwpQkcayibiONpGPHFFE2Fr+qWNdKwVO1c4pLWjlRes0vwAyB8kfdA3eSPcyXmubF2sItCImEzFcDzRWvqE5e0IogJ6uWkeuMcojYpUZJx1EvGlKiKmjouSeNW0zIU7Epv9vipTBC6uMeYkFaEpyBpSiHINIn8mRRAzYMeeZr2xtdJWwz1AhmKBodSPDJstroLVUl9beNxIo86b1STCnXqnfO1Tru6c9F/QD3vMxwaoAfZccwnm7Yo7lGXoR4v6UKxQisgUgGh/HR345e3Xv1s2Qx1dVMXN/vIl5sr6kY6Z9JawbkSJhmqa129WE2N+H52Ru9mynMmVnPZSx8ox3GIRjmfnSmbod2dHd2HHyETnzR7890xDmYo1sdeUvBEB/Z2B42GRnHxszQ1CYAqmo8LVYzR2HdwWUFnVIVtTi+soalxpMhaymxN8DljZgnGQQ6NMLOTZTM0K+zuFFiZRhZpZrrTQ+KSdhowB6Cz+MEMha3gNipeUmam7xN5XHV/riv6xCWtiGmCeunOfSpsZFp1GRorh1Yx+9LK2On0kDZJKwJSkDSlEGSaRP5MCiB3kJOh+gZDymUbrNnKR9QNtUPxEh4ZWawCY6qC9uzZU+tjnRw/ftw0bc4X8PxKSisFVIUKrLHG6uJ9qmLmBNR8rnyBkxVaAZEKCCIjhw2Rm28caHLbdu6R1o1bnE5X4DuwLuiEA6qrHczQjEFXN1U++8iXm8vA5A57XfyvMm3yJDn/C593Mghu/2v6yePzFsuht3/vHhgTyGapP2tzuDFdAmSppix3o6T+4xd9viKHwHQj0SeHNBxQzlag3ZUdCOC0KZOk98VfMw9e/c3rsmjZKntsmxpvl69fcbn8dNaP5OBbv5c5Gtj3/xqdlldw15uOPKf/pJ5Azd3cgBbJUNaqrtqn1tf3lNuHN8iQwYPshv7wxz/LgqUtGrjf2Rjnrg89OtsC3TRhtPS66KuybuVC2aplYK2WgeN6au6SEklEB11XQ8caiigyW0FVkbvRzuxTcwMKH6puXGpSD4AsUm/KukNuGiRjRg4VBPX48Q9l1dqfyZYdz9gcD7CpgwA3TpqqdfUGGYX6+t0Bcv21faV1wxbZ8fSzFOsWmuc/jQUDisUtlKFEIY1Ki73xc2uqyvpOXdLrIrmnaZx85ctfMpTN25+2YHZ0HNe67EvSSEIR8L3P/1xGDb9VBn9ngEwcP0quv6avLFnZauUgkQz0zFe9dGafCoxMCwY0I1P1MBSGbGwuOP8LGsjxctXXrzD8A4felsceb5Yj7x+tGEjfoQ7dRi1avlq27dwt37+vSS7+2lflicceFtTdpSvWan39qy+e9OkkaTKjvSDTJPJnIoDcgNaUobBmKx9RN9QO96nn6CN92803yrjR3zMPEMDmRU/Jy6/+pqpAQtnha/+9I0flvmmPyDf0hTWxcbS9uPDywhYLZaBDy0hKwbKLCATTMWussdI7AR8AM6GWG1CYQiONRlVeM8oDvnWtTJ40weokMmvTlp3S0rqhs1ZSTiEzX31tn9XWwVpbRw69xcrBkhVr5IWfv5KS7Y5BTkBPyglNKcSDCVeLce5FL+19sYy/fbiAou3+jxdk3sJlUdboOFsOTKjAhb6R+iqr17fZ2x91tb/W1an33Cn9r+4r6362Vfev/xVniqdpXb3wza93z/0paRKNiINrtuUENCtW2/iLWifHjxkuN3y7vwHsP/CWBnKpvPPun2xc6aVTyWrmASgRx1OADwDb9JGfOG6kbbOw1XruxZdl3aatcvRoTn2Nn0vik5YYCDDCAUXgNb1AmKUB3bKsxjEjZOitg+Wc+nqrb0+tWiu7n33eAG2fp8DMYFBnqAaDVPEpnCPsu3/4k0yePkO3Vv20BOCT1lVy5RV9ZPuuZy2wdiOmrBfW0NQ4Qs7uUwMJGv1e3gArXABZTWscM9KC2d7RIY/OmiPPPPtcFDSABMDIIq3GVhFZ4D734kvyRPNiKzX1PT8nI4beXES1KplwhipE9i3P1a4KXYWRoUuao4A+OX+ZtB/vcJnpY7lsVWZ3BBWnVRMbsU/t55stuU83aTesl0L7VKdVPEMTleK9/QcOyYyZczQjjlsd3bF5jTTcclMwYLW+mIp4g03/+paFFkx8CpvTvMQOVsrqclVJU8JBpknkHjBbhqKOInXiH/ZBK/0AHWq7du+VQTcPl+Utay1bJ999h+xoW6Nv/ItMwDC1GBEPSimeN0eZorS3voDWtyySJt2X1muGtm7YLN8b0yR7X/iF3Xzko9qjjSy1W499szl1mTK4uUDLfeQDsikW14g0NZkZoI4ub2m1OvrID6fa9gllABn86Ky59ukoo+KGRfCdcNzBadUP9Nivtx7/oWFvunj5Kjly9IPo6fAeh1rwYzNBEgwoYm9ZoBQGMc4aJo9URQItWl1OHH7viB5qTJE+l/aWHz1wvwV2x6Y1snHzdlm5er206+d3NiQA7puU/HIUByujh98mOGhBe1+3RT+Zu0AO6DGf+e8FEn6jcb9tA94MqX/nxtNLZp9qet4l95H3ZLq8+8abB+U7Q0bIkwuWWn0dOuQm2b5ptQzUT1K1tm9dd7VsWrPMgok6uXBZizSMukMOHIqO/mrFDetl0yuRCmYochL/2JZMdVNbs1gXkFxI0LwW1cPw7Ia2bfL0nuekcewIe1k9PH2KNAy5UeYtWC77Dx5y2WnlKscgTqvunojTqgvNyBacVq3bJP5pVVYVY3PeKO40bllB93zqvM3pJRQM6ivNCagnEeiaQxl+iJcRCQ5RX386f6nW1+dl8l132stqcfNseemXv9ZPVcu1vr5vesQnveD8z2sg06dVC5aslP/VTXwtn8CISxp0tgAzHFCUihN6ATqWL7bCLqmPH+JhvlyG+vr/o19Dv+Ou+6XvVVdaYPt+49+txm7ast0OUVBfUQJ7ap1s0NOqsaOGmbqdVi1eIa/UcFrl+0f/SX3fgn0IBlo4oBDkUpGGWQHIzrFeeuVX8vIrv7YzgAatreNGD9faep2s0JcWGo79cJaKvW3b1l2ycs2GmjIy6yVvkzQ7XzLOEcwNaJJZ0NTliImjyvVZMMjV5eKh9iU4kKjQPEDsW5/Z87wFFgF9aNpkp7xn74syb5GeVnV4Z5xutmgn8hL+0ayvaTxO5FFfIe7nBjQgWxMLvtTa3tP6iX0qjvsWz5ttME33TdP961v2+GNJO4NfxK9q8XMDmmRWnHcxcWmo3gRYGR+Tc9XMRKEh96D79h908thyIZCcI3UCVXZwn7wPX5U8UpvjIKbe/sCpVr8PrXbJnKnqO39HU9U7l6MRzFAsQJKhuC3lxMTh6LjcPtXJxRngxtV0aBo0bqx58IfZCer8i3Uon0dNRyeJl4WAns8zHGKTQiDTimUoAKpoIfEQrwrItGgAjCzStELnR8QlzUMMZijWJslQXYbUmWAM5S9fbMVn0SBxOEd+rRR4zEwfg7xq7dA/HyvUJy5pSAa8Yhka0uZSkaoMu6Qhta7ghfC9c4+uMFGCQZukJQIxIydDUVtUIlUkFSo1JiRMqHBMHMW0spEBdIKrC1prs4zKmtSx+augzg3yyCgxGHlRLkOpSupDgBdquRmapxACqYVHfNJaMNxKlVHuFH4Z3LypcIbq4un/OEP9hTteXvEsMFVT43lPjDeKfRoygFO+E+SR+nPl+n5GISvzzkzLzfn4Pp7PR5++kfrz4EV35nM7U0PTOMno75gS3W2qFvzcRx7LY6sXU6x4lHGkcfZxHrPIxvgHEf6Xf/6KTJwwRn+X1DPG8uYp5+lQN0S5Yqm52KZ5pDhqxNlxPPoV0571n5PbRzTIP33pQoNM4eX44uNCHuPoh14lND+giUzlXmApFy1baW+IpgljZevG1fLdQd92OAFxVgknU1OHwKQeCFgDrr9G1iybHx39KaOldaMn0TXdYA3V+OsCnNAr3MAoRJVtDaul8xDx2oLFT8l2/YrhpDvHyY2DBsjMGQ8qHai/LFspr79xICvurHgQwa5lSHBGmbGrSCB/G4XvVI0bPczOV6GK0yoc++EstatbMKDp2KRHhR1Qtb8cfk+mP/xj2bFrjzTdMVb+rc8l+rNQv164R2bPnZ/6pVxh3AKC9Bil5r67Jth5KtTePPiWrFizXt488Lah1HKyX8l8MKBaiaxERN8/iyD87/Vg3lIytS/V20iNabpOXnv9DXlt3xv6tcIbZNrUeyxjr+l3lazd0KYZ2+KyNUY1dGpnadkMRSRjkPF6MI0DanxzBYfRTy5YZseAUebq3agsMtk9fFlDNY4L1VCuuG8jxPPnQ/3tu3bLtQMHy2L9jeQ559TbC2vv05vl6n7fLBEnPmmJQA6j3zevlJ1trfr1yREWzBWr18lNt43SYOoX1QKtWvwARIoVzFBIoIbiM47/LclkOROuSwmkRoF96rG/tcvCpSv0m2+7ZfrUey2YzU/M1Lr6pjw4Y6YcPnzEHPSTx7/pvAz94gXnC75EcdklvUz/pV/+SuY2L41/yRdlpE3EF9ZZUn+uaD96UtPSuQFNxPzbSbg192I41NdJk6dZXZ1+/71y+WWXyN5dm60MLFmxWtrbOwqZwCM9YexIGXZb9E26d979o/4WdYngIBrpgH+7q4Wgw488kg0pohfuuzBGn9QS0gYeX5kRK9Lz5ZUT68c0ApDf7tsvgxtGyewn5uvviDpkxLBbZe/ONhnecIvJA9DPyggz4uH7p89sW2/BxO/h52ogh45qlH37D0S2YpvqYRoLTpIXU5VI6fh28vulSxUOaKmccbgipDlipewCCq0bNsl1N9wi6zZutvr6gyl3a8a2WeZmAfFVnj3bN8rUe5usTuILEwMHD5MN+q3kso1+kHrCZJF6U1V1cx95PysiRKyhPURK8SRFV6y0X1uTMf3Q+cA+tURNxf92rF1mzZmn35Jrk5mP/FD6XNZbVi5tlv/8RfIfGzz5+I/l6r7RSwyP9UOP/kS/IR1/GcLffNK8T2NXkaBZUfJ4N75aNf3cgJaCRMEEP72K6VGpXg6HaqQe7mGtr6MbJ8nlfS6Vxx55ILULQDARwAdnzLI6CfRq95OeSedcNsBuospObkBLMzSLjAAja6PGEamFPbUv1dtIjYmH20PKRMRRHb6u9bW/lgF8fEVtRVu7sU2WPLXa+tUG0mFnTerYyqqiOjfII8MsVr7kBrSyaiIBm9kW4mVlio6x+Ucg8Zx24O2vlPikRbFScgWUC4ikIIMB5RsvJVkyYE1NqLe+lrvRbbMqKS2wT7WUj+/C05RjWl/9QPpz1d40b8XVTQXLPvLl5py+ez7J6ZLz0FpvJ3Ei1etiuBR2ZtAdpoIZCrvV1FA4lnxDiKPk01RUaZVfpIbypgPiEXIkwD4p1aqisTKy0zJSlZn5qCl+libFNRaCIQhnWlX70IxuyRD+oZFGowLXKhVC4iFeActpEYKQerNkkXpTqW44QzXylTM0haMD1tJo4bpjn8rsIfU9CPH8+UL9GISZ6euQV8lOF2Zo3pu30pr6bnt9qpHqFLuknnSXdkP42ZdWnsFwhqq01T0uB97OoYKRh2r8ZEeKIUekFp5UTVUbqTHBY9t0gdQw+TREss5dqlZLiZ01qWNkKJoTQScQkxoz1NCAWKiFpEO8QmAFhYhPWlAtLVaDcn6Gpr5jz7WnveyYfJ+ypibUW9+Simur3Yl9avbe6SGp71nRvqubCpJ95DEH7GyrMUOzMOXG2VstJ1tgrovhylmsxZTLUP9zcRR5zax4ZU66zFHzsBJamhLPUtVSVagYUc6SGnCRGko7CpMVpwWIsE9KtaporJy3Tw3FoQcCyR/fWNv6VfEQqNqUxL1o7K4ISdxchwxQ4PvjbF8n4/lSsYiTrx/PE7IEIGYoSU+lR5xMuEkP0KX20/OQwZ+tQBwtQ/lXVzCB1uui6D86jUanrkUiwD8BpLGM/g4Q/nzNqVZ7BPCnfxDUOv2jICfxh0GOHTtmv9Npb2+Xjz/+WPC3LfjXA2o38/9TE482ErFHjx5y9tln6/82qV7OPfdco/8HqLD8Y/CRWd4AAAAASUVORK5CYII=;" vertex="1" parent="tEiwjrVFLXrb9t0FOtXx-2">
          <mxGeometry x="420" y="45" width="60" height="58.58" as="geometry" />
        </mxCell>
        <mxCell id="tEiwjrVFLXrb9t0FOtXx-10" value="&lt;font&gt;Service Quota API&lt;/font&gt;" style="text;html=1;align=center;verticalAlign=middle;whiteSpace=wrap;rounded=0;fontStyle=1" vertex="1" parent="tEiwjrVFLXrb9t0FOtXx-2">
          <mxGeometry x="395" y="94.99999999999994" width="110" height="30" as="geometry" />
        </mxCell>
        <mxCell id="tEiwjrVFLXrb9t0FOtXx-11" value="" style="edgeStyle=none;orthogonalLoop=1;jettySize=auto;html=1;rounded=0;" edge="1" parent="tEiwjrVFLXrb9t0FOtXx-2">
          <mxGeometry width="80" relative="1" as="geometry">
            <mxPoint x="106.00999999999999" y="73.79000000000002" as="sourcePoint" />
            <mxPoint x="228.25" y="74.78000000000003" as="targetPoint" />
            <Array as="points" />
          </mxGeometry>
        </mxCell>
        <mxCell id="tEiwjrVFLXrb9t0FOtXx-12" value="" style="sketch=0;outlineConnect=0;fontColor=#232F3E;gradientColor=none;fillColor=#E7157B;strokeColor=none;dashed=0;verticalLabelPosition=bottom;verticalAlign=top;align=center;html=1;fontSize=12;fontStyle=0;aspect=fixed;pointerEvents=1;shape=mxgraph.aws4.event_time_based;" vertex="1" parent="tEiwjrVFLXrb9t0FOtXx-2">
          <mxGeometry x="140" y="32" width="36" height="36" as="geometry" />
        </mxCell>
        <mxCell id="tEiwjrVFLXrb9t0FOtXx-13" value="" style="edgeStyle=none;orthogonalLoop=1;jettySize=auto;html=1;rounded=0;" edge="1" parent="tEiwjrVFLXrb9t0FOtXx-2">
          <mxGeometry width="80" relative="1" as="geometry">
            <mxPoint x="285.25" y="73.79000000000002" as="sourcePoint" />
            <mxPoint x="420.25" y="73.79000000000002" as="targetPoint" />
            <Array as="points" />
          </mxGeometry>
        </mxCell>
        <mxCell id="tEiwjrVFLXrb9t0FOtXx-14" value="" style="dashed=0;outlineConnect=0;html=1;align=center;labelPosition=center;verticalLabelPosition=bottom;verticalAlign=top;shape=mxgraph.webicons.json_2;gradientColor=#DFDEDE" vertex="1" parent="tEiwjrVFLXrb9t0FOtXx-2">
          <mxGeometry x="330.00000000000006" y="18.99999999999997" width="41.93" height="38.72" as="geometry" />
        </mxCell>
        <mxCell id="tEiwjrVFLXrb9t0FOtXx-15" value="&lt;font&gt;QuotaList.json&lt;/font&gt;" style="text;html=1;align=center;verticalAlign=middle;whiteSpace=wrap;rounded=0;fontStyle=1" vertex="1" parent="tEiwjrVFLXrb9t0FOtXx-2">
          <mxGeometry x="331.92999999999995" y="56.997419354838655" width="40" height="20.32258064516129" as="geometry" />
        </mxCell>
        <mxCell id="tEiwjrVFLXrb9t0FOtXx-16" value="" style="sketch=0;outlineConnect=0;fontColor=#232F3E;gradientColor=none;fillColor=#C925D1;strokeColor=none;dashed=0;verticalLabelPosition=bottom;verticalAlign=top;align=center;html=1;fontSize=12;fontStyle=0;aspect=fixed;pointerEvents=1;shape=mxgraph.aws4.table;" vertex="1" parent="tEiwjrVFLXrb9t0FOtXx-2">
          <mxGeometry x="420" y="170.75" width="50.75" height="50.75" as="geometry" />
        </mxCell>
        <mxCell id="tEiwjrVFLXrb9t0FOtXx-17" value="&lt;font&gt;QuotaGuardDDBTable&lt;/font&gt;" style="text;html=1;align=center;verticalAlign=middle;whiteSpace=wrap;rounded=0;fontStyle=1" vertex="1" parent="tEiwjrVFLXrb9t0FOtXx-2">
          <mxGeometry x="420" y="215.5" width="60" height="30" as="geometry" />
        </mxCell>
        <mxCell id="tEiwjrVFLXrb9t0FOtXx-18" value="" style="group" vertex="1" connectable="0" parent="tEiwjrVFLXrb9t0FOtXx-2">
          <mxGeometry x="183" y="118.58" width="69" height="221.81" as="geometry" />
        </mxCell>
        <mxCell id="tEiwjrVFLXrb9t0FOtXx-19" value="" style="sketch=0;outlineConnect=0;fontColor=#232F3E;gradientColor=none;fillColor=#E7157B;strokeColor=none;dashed=0;verticalLabelPosition=bottom;verticalAlign=top;align=center;html=1;fontSize=12;fontStyle=0;aspect=fixed;pointerEvents=1;shape=mxgraph.aws4.rule_3;" vertex="1" parent="tEiwjrVFLXrb9t0FOtXx-18">
          <mxGeometry x="7" y="48.86999999999999" width="62" height="54.05" as="geometry" />
        </mxCell>
        <mxCell id="tEiwjrVFLXrb9t0FOtXx-20" value="&lt;font&gt;QuotaGuardEventNotificationRule&lt;/font&gt;" style="text;html=1;align=center;verticalAlign=middle;whiteSpace=wrap;rounded=0;fontStyle=1" vertex="1" parent="tEiwjrVFLXrb9t0FOtXx-18">
          <mxGeometry x="2" y="99.92" width="60" height="30" as="geometry" />
        </mxCell>
        <mxCell id="tEiwjrVFLXrb9t0FOtXx-21" value="" style="edgeStyle=none;orthogonalLoop=1;jettySize=auto;html=1;rounded=0;" edge="1" parent="tEiwjrVFLXrb9t0FOtXx-18">
          <mxGeometry width="100" relative="1" as="geometry">
            <mxPoint x="40" as="sourcePoint" />
            <mxPoint x="39.5" y="45.999999999999986" as="targetPoint" />
            <Array as="points" />
          </mxGeometry>
        </mxCell>
        <mxCell id="tEiwjrVFLXrb9t0FOtXx-22" value="" style="sketch=0;outlineConnect=0;fontColor=#232F3E;gradientColor=none;fillColor=#E7157B;strokeColor=none;dashed=0;verticalLabelPosition=bottom;verticalAlign=top;align=center;html=1;fontSize=12;fontStyle=0;aspect=fixed;pointerEvents=1;shape=mxgraph.aws4.event;" vertex="1" parent="tEiwjrVFLXrb9t0FOtXx-18">
          <mxGeometry x="15" y="9.420000000000002" width="20" height="20" as="geometry" />
        </mxCell>
        <mxCell id="tEiwjrVFLXrb9t0FOtXx-23" value="" style="endArrow=none;html=1;rounded=0;endSize=8;startSize=8;" edge="1" parent="tEiwjrVFLXrb9t0FOtXx-18">
          <mxGeometry width="50" height="50" relative="1" as="geometry">
            <mxPoint x="39" y="195.42000000000002" as="sourcePoint" />
            <mxPoint x="39" y="121.42000000000007" as="targetPoint" />
          </mxGeometry>
        </mxCell>
        <mxCell id="tEiwjrVFLXrb9t0FOtXx-24" value="" style="edgeStyle=elbowEdgeStyle;endArrow=classic;html=1;rounded=0;endSize=6;startSize=6;elbow=vertical;exitX=1;exitY=0.75;exitDx=0;exitDy=0;" edge="1" parent="tEiwjrVFLXrb9t0FOtXx-2" source="tEiwjrVFLXrb9t0FOtXx-8">
          <mxGeometry width="50" height="50" relative="1" as="geometry">
            <mxPoint x="286" y="127" as="sourcePoint" />
            <mxPoint x="415" y="194" as="targetPoint" />
            <Array as="points">
              <mxPoint x="355" y="194" />
            </Array>
          </mxGeometry>
        </mxCell>
        <mxCell id="tEiwjrVFLXrb9t0FOtXx-25" value="1" style="ellipse;whiteSpace=wrap;html=1;aspect=fixed;rotation=0;gradientColor=#0057D2;strokeColor=none;gradientDirection=east;fillColor=#2395FF;rounded=0;pointerEvents=0;fontFamily=Helvetica;fontSize=16;fontColor=#FFFFFF;spacingTop=4;spacingBottom=4;spacingLeft=4;spacingRight=4;points=[];fontStyle=1" vertex="1" parent="tEiwjrVFLXrb9t0FOtXx-2">
          <mxGeometry x="30" y="29" width="20" height="20" as="geometry" />
        </mxCell>
        <mxCell id="tEiwjrVFLXrb9t0FOtXx-26" value="2" style="ellipse;whiteSpace=wrap;html=1;aspect=fixed;rotation=0;gradientColor=#0057D2;strokeColor=none;gradientDirection=east;fillColor=#2395FF;rounded=0;pointerEvents=0;fontFamily=Helvetica;fontSize=16;fontColor=#FFFFFF;spacingTop=4;spacingBottom=4;spacingLeft=4;spacingRight=4;points=[];fontStyle=1" vertex="1" parent="tEiwjrVFLXrb9t0FOtXx-2">
          <mxGeometry x="401" y="29" width="20" height="20" as="geometry" />
        </mxCell>
        <mxCell id="tEiwjrVFLXrb9t0FOtXx-27" value="5" style="ellipse;whiteSpace=wrap;html=1;aspect=fixed;rotation=0;gradientColor=#0057D2;strokeColor=none;gradientDirection=east;fillColor=#2395FF;rounded=0;pointerEvents=0;fontFamily=Helvetica;fontSize=16;fontColor=#FFFFFF;spacingTop=4;spacingBottom=4;spacingLeft=4;spacingRight=4;points=[];fontStyle=1" vertex="1" parent="tEiwjrVFLXrb9t0FOtXx-2">
          <mxGeometry x="401" y="153" width="19" height="19" as="geometry" />
        </mxCell>
        <mxCell id="tEiwjrVFLXrb9t0FOtXx-28" value="3" style="ellipse;whiteSpace=wrap;html=1;aspect=fixed;rotation=0;gradientColor=#0057D2;strokeColor=none;gradientDirection=east;fillColor=#2395FF;rounded=0;pointerEvents=0;fontFamily=Helvetica;fontSize=16;fontColor=#FFFFFF;spacingTop=4;spacingBottom=4;spacingLeft=4;spacingRight=4;points=[];fontStyle=1" vertex="1" parent="1">
          <mxGeometry x="357" y="361" width="20" height="20" as="geometry" />
        </mxCell>
        <mxCell id="tEiwjrVFLXrb9t0FOtXx-29" value="4" style="ellipse;whiteSpace=wrap;html=1;aspect=fixed;rotation=0;gradientColor=#0057D2;strokeColor=none;gradientDirection=east;fillColor=#2395FF;rounded=0;pointerEvents=0;fontFamily=Helvetica;fontSize=16;fontColor=#FFFFFF;spacingTop=4;spacingBottom=4;spacingLeft=4;spacingRight=4;points=[];fontStyle=1" vertex="1" parent="1">
          <mxGeometry x="356" y="410" width="20" height="20" as="geometry" />
        </mxCell>
        <mxCell id="tEiwjrVFLXrb9t0FOtXx-30" value="AWS Account - Hub" style="points=[[0,0],[0.25,0],[0.5,0],[0.75,0],[1,0],[1,0.25],[1,0.5],[1,0.75],[1,1],[0.75,1],[0.5,1],[0.25,1],[0,1],[0,0.75],[0,0.5],[0,0.25]];outlineConnect=0;gradientColor=none;html=1;whiteSpace=wrap;fontSize=12;fontStyle=0;container=1;pointerEvents=0;collapsible=0;recursiveResize=0;shape=mxgraph.aws4.group;grIcon=mxgraph.aws4.group_account;strokeColor=#CD2264;fillColor=none;verticalAlign=top;align=left;spacingLeft=30;fontColor=#CD2264;dashed=0;movable=1;resizable=1;rotatable=1;deletable=1;editable=1;locked=0;connectable=1;" vertex="1" parent="1">
          <mxGeometry x="-440" y="220" width="567" height="450" as="geometry" />
        </mxCell>
        <mxCell id="tEiwjrVFLXrb9t0FOtXx-31" value="Region" style="points=[[0,0],[0.25,0],[0.5,0],[0.75,0],[1,0],[1,0.25],[1,0.5],[1,0.75],[1,1],[0.75,1],[0.5,1],[0.25,1],[0,1],[0,0.75],[0,0.5],[0,0.25]];outlineConnect=0;gradientColor=none;html=1;whiteSpace=wrap;fontSize=12;fontStyle=0;container=1;pointerEvents=0;collapsible=0;recursiveResize=0;shape=mxgraph.aws4.group;grIcon=mxgraph.aws4.group_region;strokeColor=#00A4A6;fillColor=none;verticalAlign=top;align=left;spacingLeft=30;fontColor=#147EBA;dashed=1;" vertex="1" parent="tEiwjrVFLXrb9t0FOtXx-30">
          <mxGeometry x="14" y="34" width="541.5" height="406" as="geometry" />
        </mxCell>
        <mxCell id="tEiwjrVFLXrb9t0FOtXx-32" value="" style="group" vertex="1" connectable="0" parent="tEiwjrVFLXrb9t0FOtXx-31">
          <mxGeometry x="174.36" y="36" width="149" height="343.58" as="geometry" />
        </mxCell>
        <mxCell id="tEiwjrVFLXrb9t0FOtXx-33" value="" style="group" vertex="1" connectable="0" parent="tEiwjrVFLXrb9t0FOtXx-32">
          <mxGeometry width="149" height="83" as="geometry" />
        </mxCell>
        <mxCell id="tEiwjrVFLXrb9t0FOtXx-34" value="" style="sketch=0;points=[[0,0,0],[0.25,0,0],[0.5,0,0],[0.75,0,0],[1,0,0],[0,1,0],[0.25,1,0],[0.5,1,0],[0.75,1,0],[1,1,0],[0,0.25,0],[0,0.5,0],[0,0.75,0],[1,0.25,0],[1,0.5,0],[1,0.75,0]];outlineConnect=0;fontColor=#232F3E;fillColor=#E7157B;strokeColor=#ffffff;dashed=0;verticalLabelPosition=bottom;verticalAlign=top;align=center;html=1;fontSize=12;fontStyle=0;aspect=fixed;shape=mxgraph.aws4.resourceIcon;resIcon=mxgraph.aws4.eventbridge;" vertex="1" parent="tEiwjrVFLXrb9t0FOtXx-33">
          <mxGeometry x="45.639999999999986" width="57.71" height="57.71" as="geometry" />
        </mxCell>
        <mxCell id="tEiwjrVFLXrb9t0FOtXx-35" value="&lt;font style=&quot;font-size: 12px;&quot;&gt;Eventbridge&lt;/font&gt;" style="text;html=1;align=center;verticalAlign=middle;whiteSpace=wrap;rounded=0;fontStyle=1;fontSize=9;" vertex="1" parent="tEiwjrVFLXrb9t0FOtXx-33">
          <mxGeometry y="53" width="149" height="30" as="geometry" />
        </mxCell>
        <mxCell id="tEiwjrVFLXrb9t0FOtXx-36" value="6" style="ellipse;whiteSpace=wrap;html=1;aspect=fixed;rotation=0;gradientColor=#0057D2;strokeColor=none;gradientDirection=east;fillColor=#2395FF;rounded=0;pointerEvents=0;fontFamily=Helvetica;fontSize=16;fontColor=#FFFFFF;spacingTop=4;spacingBottom=4;spacingLeft=4;spacingRight=4;points=[];fontStyle=1" vertex="1" parent="tEiwjrVFLXrb9t0FOtXx-33">
          <mxGeometry x="24.639999999999986" y="101" width="20" height="20" as="geometry" />
        </mxCell>
        <mxCell id="tEiwjrVFLXrb9t0FOtXx-37" value="" style="group" vertex="1" connectable="0" parent="tEiwjrVFLXrb9t0FOtXx-32">
          <mxGeometry x="50.639999999999986" y="111.4" width="71" height="65.6" as="geometry" />
        </mxCell>
        <mxCell id="tEiwjrVFLXrb9t0FOtXx-38" value="" style="sketch=0;outlineConnect=0;fontColor=#232F3E;gradientColor=none;fillColor=#E7157B;strokeColor=none;dashed=0;verticalLabelPosition=bottom;verticalAlign=top;align=center;html=1;fontSize=12;fontStyle=0;aspect=fixed;pointerEvents=1;shape=mxgraph.aws4.rule_3;" vertex="1" parent="tEiwjrVFLXrb9t0FOtXx-37">
          <mxGeometry width="47.86" height="41.73" as="geometry" />
        </mxCell>
        <mxCell id="tEiwjrVFLXrb9t0FOtXx-39" value="&lt;font style=&quot;font-size: 12px;&quot;&gt;QuotaGuardEventNotificationRule&lt;/font&gt;" style="text;html=1;align=center;verticalAlign=middle;whiteSpace=wrap;rounded=0;fontStyle=1" vertex="1" parent="tEiwjrVFLXrb9t0FOtXx-37">
          <mxGeometry x="11" y="35.599999999999994" width="60" height="30" as="geometry" />
        </mxCell>
        <mxCell id="tEiwjrVFLXrb9t0FOtXx-40" value="" style="sketch=0;outlineConnect=0;fontColor=#232F3E;gradientColor=none;fillColor=#E7157B;strokeColor=none;dashed=0;verticalLabelPosition=bottom;verticalAlign=top;align=center;html=1;fontSize=12;fontStyle=0;aspect=fixed;pointerEvents=1;shape=mxgraph.aws4.topic;" vertex="1" parent="tEiwjrVFLXrb9t0FOtXx-32">
          <mxGeometry x="45.56999999999999" y="207.3" width="57.86" height="49.7" as="geometry" />
        </mxCell>
        <mxCell id="tEiwjrVFLXrb9t0FOtXx-41" value="&lt;font style=&quot;font-size: 12px;&quot;&gt;QuotaThresholdSNSTopic&lt;/font&gt;" style="text;html=1;align=center;verticalAlign=middle;whiteSpace=wrap;rounded=0;fontStyle=1" vertex="1" parent="tEiwjrVFLXrb9t0FOtXx-32">
          <mxGeometry x="50.639999999999986" y="249.99819554277497" width="50" height="35.39180445722503" as="geometry" />
        </mxCell>
        <mxCell id="tEiwjrVFLXrb9t0FOtXx-42" value="" style="sketch=0;outlineConnect=0;fontColor=#232F3E;gradientColor=none;fillColor=#DD344C;strokeColor=none;dashed=0;verticalLabelPosition=bottom;verticalAlign=top;align=center;html=1;fontSize=12;fontStyle=0;aspect=fixed;shape=mxgraph.aws4.email;" vertex="1" parent="tEiwjrVFLXrb9t0FOtXx-32">
          <mxGeometry x="53.81999999999999" y="307" width="41.36" height="36.58" as="geometry" />
        </mxCell>
        <mxCell id="tEiwjrVFLXrb9t0FOtXx-43" value="" style="edgeStyle=none;orthogonalLoop=1;jettySize=auto;html=1;rounded=0;" edge="1" parent="tEiwjrVFLXrb9t0FOtXx-32">
          <mxGeometry width="100" relative="1" as="geometry">
            <mxPoint x="74.32999999999998" y="78" as="sourcePoint" />
            <mxPoint x="74.32999999999998" y="108" as="targetPoint" />
            <Array as="points" />
          </mxGeometry>
        </mxCell>
        <mxCell id="tEiwjrVFLXrb9t0FOtXx-44" value="" style="edgeStyle=none;orthogonalLoop=1;jettySize=auto;html=1;rounded=0;" edge="1" parent="tEiwjrVFLXrb9t0FOtXx-32">
          <mxGeometry width="100" relative="1" as="geometry">
            <mxPoint x="74.25999999999999" y="172" as="sourcePoint" />
            <mxPoint x="74.25999999999999" y="202" as="targetPoint" />
            <Array as="points" />
          </mxGeometry>
        </mxCell>
        <mxCell id="tEiwjrVFLXrb9t0FOtXx-45" value="" style="edgeStyle=none;orthogonalLoop=1;jettySize=auto;html=1;rounded=0;" edge="1" parent="tEiwjrVFLXrb9t0FOtXx-32">
          <mxGeometry width="100" relative="1" as="geometry">
            <mxPoint x="74.25999999999999" y="278" as="sourcePoint" />
            <mxPoint x="74.25999999999999" y="308" as="targetPoint" />
            <Array as="points" />
          </mxGeometry>
        </mxCell>
        <mxCell id="tEiwjrVFLXrb9t0FOtXx-46" value="7" style="ellipse;whiteSpace=wrap;html=1;aspect=fixed;rotation=0;gradientColor=#0057D2;strokeColor=none;gradientDirection=east;fillColor=#2395FF;rounded=0;pointerEvents=0;fontFamily=Helvetica;fontSize=16;fontColor=#FFFFFF;spacingTop=4;spacingBottom=4;spacingLeft=4;spacingRight=4;points=[];fontStyle=1" vertex="1" parent="tEiwjrVFLXrb9t0FOtXx-32">
          <mxGeometry x="21.639999999999986" y="187" width="20" height="20" as="geometry" />
        </mxCell>
        <mxCell id="tEiwjrVFLXrb9t0FOtXx-47" value="8" style="ellipse;whiteSpace=wrap;html=1;aspect=fixed;rotation=0;gradientColor=#0057D2;strokeColor=none;gradientDirection=east;fillColor=#2395FF;rounded=0;pointerEvents=0;fontFamily=Helvetica;fontSize=16;fontColor=#FFFFFF;spacingTop=4;spacingBottom=4;spacingLeft=4;spacingRight=4;points=[];fontStyle=1" vertex="1" parent="tEiwjrVFLXrb9t0FOtXx-32">
          <mxGeometry x="21.639999999999986" y="294" width="20" height="20" as="geometry" />
        </mxCell>
        <mxCell id="tEiwjrVFLXrb9t0FOtXx-48" value="" style="edgeStyle=elbowEdgeStyle;elbow=horizontal;endArrow=classic;html=1;curved=0;rounded=0;endSize=8;startSize=8;" edge="1" parent="1">
          <mxGeometry width="50" height="50" relative="1" as="geometry">
            <mxPoint x="418" y="567" as="sourcePoint" />
            <mxPoint x="-142" y="322" as="targetPoint" />
            <Array as="points">
              <mxPoint x="57" y="363" />
            </Array>
          </mxGeometry>
        </mxCell>
      </root>
    </mxGraphModel>
  </diagram>
</mxfile>
